<svg width="240" height="150" viewBox="0 0 240 176" fill="none" xmlns="http://www.w3.org/2000/svg">
<path fill-rule="evenodd" clip-rule="evenodd" d="M240 40C240 29.392 235.784 19.216 228.288 11.712C220.784 4.216 210.608 0 200 0C157.424 0 82.576 0 40 0C29.392 0 19.216 4.216 11.712 11.712C4.216 19.216 0 29.392 0 40C0 67.888 0 108.112 0 136C0 146.608 4.216 156.784 11.712 164.288C19.216 171.784 29.392 176 40 176C82.576 176 157.424 176 200 176C210.608 176 220.784 171.784 228.288 164.288C235.784 156.784 240 146.608 240 136C240 108.112 240 67.888 240 40ZM27.552 38.232C27.552 38.232 68.712 72.128 94.528 93.384C109.32 105.568 130.68 105.544 145.448 93.328C171.344 71.912 212.752 37.656 212.752 37.656C216.152 34.84 216.632 29.792 213.816 26.392C211.008 22.992 205.96 22.512 202.552 25.328C202.552 25.328 161.144 59.576 135.256 81C126.392 88.328 113.576 88.344 104.696 81.032L37.72 25.88C34.312 23.072 29.272 23.56 26.464 26.968C23.656 30.376 24.144 35.424 27.552 38.232Z" fill="#F2F2F2"/>
</svg>
